HIERARCHY
ROOT Hips
{
    OFFSET   0.000000   0.000000   0.000000
    CHANNELS 6 Xposition Yposition Zposition Zrotation Xrotation Yrotation
    JOINT Chest
    {
        OFFSET   0.000000   8.007230   0.000000
        CHANNELS 3 Zrotation Xrotation Yrotation
        JOINT Chest2
        {
            OFFSET   0.000000  22.077100   0.000000
            CHANNELS 3 Zrotation Xrotation Yrotation
            JOINT Neck
            {
                OFFSET   0.000000  23.255100   0.000000
                CHANNELS 3 Zrotation Xrotation Yrotation
                JOINT Head
                {
                    OFFSET   0.000000  14.370100   1.956600
                    CHANNELS 3 Zrotation Xrotation Yrotation
                    End Site
                    {
                        OFFSET   0.000000  19.566000   0.000000
                    }
                }
            }
            JOINT LeftCollar
            {
                OFFSET   3.911900  19.017000  -0.467063
                CHANNELS 3 Zrotation Xrotation Yrotation
                JOINT LeftShoulder
                {
                    OFFSET  10.383700   0.000000   0.000000
                    CHANNELS 3 Zrotation Xrotation Yrotation
                    JOINT LeftElbow
                    {
                        OFFSET  26.662100   0.001193   0.000980
                        CHANNELS 3 Zrotation Xrotation Yrotation
                        JOINT LeftWrist
                        {
                            OFFSET  28.869000  -0.000059  -0.000082
                            CHANNELS 3 Zrotation Xrotation Yrotation
                            JOINT LeftFinger0
                            {
                                OFFSET   2.044650  -2.323450   3.252850
                                CHANNELS 3 Zrotation Xrotation Yrotation
                                JOINT LeftFinger01
                                {
                                    OFFSET   3.088130   0.000000   0.000000
                                    CHANNELS 3 Zrotation Xrotation Yrotation
                                    JOINT LeftFinger02
                                    {
                                        OFFSET   2.639460   0.000000   0.000000
                                        CHANNELS 3 Zrotation Xrotation Yrotation
                                        End Site
                                        {
                                            OFFSET   2.582190   0.000000   0.000000
                                        }
                                    }
                                }
                            }
                            JOINT LeftFinger1
                            {
                                OFFSET   8.364480   0.000000   3.252850
                                CHANNELS 3 Zrotation Xrotation Yrotation
                                JOINT LeftFinger11
                                {
                                    OFFSET   4.646930   0.000000   0.000000
                                    CHANNELS 3 Zrotation Xrotation Yrotation
                                    JOINT LeftFinger12
                                    {
                                        OFFSET   2.323470   0.000000   0.000000
                                        CHANNELS 3 Zrotation Xrotation Yrotation
                                        End Site
                                        {
                                            OFFSET   2.273050   0.000000   0.000000
                                        }
                                    }
                                }
                            }
                            JOINT LeftFinger2
                            {
                                OFFSET   8.364490   0.000016   1.078090
                                CHANNELS 3 Zrotation Xrotation Yrotation
                                JOINT LeftFinger21
                                {
                                    OFFSET   5.111610   0.000000   0.000000
                                    CHANNELS 3 Zrotation Xrotation Yrotation
                                    JOINT LeftFinger22
                                    {
                                        OFFSET   2.788150   0.000016   0.000000
                                        CHANNELS 3 Zrotation Xrotation Yrotation
                                        End Site
                                        {
                                            OFFSET   2.727660   0.000000   0.000000
                                        }
                                    }
                                }
                            }
                            JOINT LeftFinger3
                            {
                                OFFSET   7.899780   0.000015  -1.078090
                                CHANNELS 3 Zrotation Xrotation Yrotation
                                JOINT LeftFinger31
                                {
                                    OFFSET   4.646930   0.000000   0.000000
                                    CHANNELS 3 Zrotation Xrotation Yrotation
                                    JOINT LeftFinger32
                                    {
                                        OFFSET   2.323470   0.000000   0.000000
                                        CHANNELS 3 Zrotation Xrotation Yrotation
                                        End Site
                                        {
                                            OFFSET   2.273050   0.000000   0.000000
                                        }
                                    }
                                }
                            }
                            JOINT LeftFinger4
                            {
                                OFFSET   7.435090   0.000000  -3.252850
                                CHANNELS 3 Zrotation Xrotation Yrotation
                                JOINT LeftFinger41
                                {
                                    OFFSET   3.717550   0.000000   0.000000
                                    CHANNELS 3 Zrotation Xrotation Yrotation
                                    JOINT LeftFinger42
                                    {
                                        OFFSET   1.858770   0.000000   0.000000
                                        CHANNELS 3 Zrotation Xrotation Yrotation
                                        End Site
                                        {
                                            OFFSET   1.818440   0.000000   0.000000
                                        }
                                    }
                                }
                            }
                        }
                    }
                }
            }
            JOINT RightCollar
            {
                OFFSET  -3.911910  19.017000  -0.467062
                CHANNELS 3 Zrotation Xrotation Yrotation
                JOINT RightShoulder
                {
                    OFFSET -10.383700   0.000014   0.000000
                    CHANNELS 3 Zrotation Xrotation Yrotation
                    JOINT RightElbow
                    {
                        OFFSET -26.662100   0.001225   0.001091
                        CHANNELS 3 Zrotation Xrotation Yrotation
                        JOINT RightWrist
                        {
                            OFFSET -28.869000  -0.000020  -0.000085
                            CHANNELS 3 Zrotation Xrotation Yrotation
                            JOINT RightFinger0
                            {
                                OFFSET  -2.044650  -2.323490   3.252850
                                CHANNELS 3 Zrotation Xrotation Yrotation
                                JOINT RightFinger01
                                {
                                    OFFSET  -3.088130   0.000000   0.000000
                                    CHANNELS 3 Zrotation Xrotation Yrotation
                                    JOINT RightFinger02
                                    {
                                        OFFSET  -2.639460   0.000000   0.000000
                                        CHANNELS 3 Zrotation Xrotation Yrotation
                                        End Site
                                        {
                                            OFFSET  -2.582190   0.000000   0.000000
                                        }
                                    }
                                }
                            }
                            JOINT RightFinger1
                            {
                                OFFSET  -8.364480   0.000000   3.252850
                                CHANNELS 3 Zrotation Xrotation Yrotation
                                JOINT RightFinger11
                                {
                                    OFFSET  -4.646930   0.000000   0.000000
                                    CHANNELS 3 Zrotation Xrotation Yrotation
                                    JOINT RightFinger12
                                    {
                                        OFFSET  -2.323470   0.000000   0.000000
                                        CHANNELS 3 Zrotation Xrotation Yrotation
                                        End Site
                                        {
                                            OFFSET  -2.273050   0.000000   0.000000
                                        }
                                    }
                                }
                            }
                            JOINT RightFinger2
                            {
                                OFFSET  -8.364480   0.000000   1.078090
                                CHANNELS 3 Zrotation Xrotation Yrotation
                                JOINT RightFinger21
                                {
                                    OFFSET  -5.111620   0.000000   0.000000
                                    CHANNELS 3 Zrotation Xrotation Yrotation
                                    JOINT RightFinger22
                                    {
                                        OFFSET  -2.788160   0.000000   0.000000
                                        CHANNELS 3 Zrotation Xrotation Yrotation
                                        End Site
                                        {
                                            OFFSET  -2.727660   0.000000   0.000000
                                        }
                                    }
                                }
                            }
                            JOINT RightFinger3
                            {
                                OFFSET  -7.899780   0.000000  -1.078090
                                CHANNELS 3 Zrotation Xrotation Yrotation
                                JOINT RightFinger31
                                {
                                    OFFSET  -4.646930   0.000000   0.000000
                                    CHANNELS 3 Zrotation Xrotation Yrotation
                                    JOINT RightFinger32
                                    {
                                        OFFSET  -2.323470   0.000000   0.000000
                                        CHANNELS 3 Zrotation Xrotation Yrotation
                                        End Site
                                        {
                                            OFFSET  -2.273050   0.000000   0.000000
                                        }
                                    }
                                }
                            }
                            JOINT RightFinger4
                            {
                                OFFSET  -7.435090   0.000000  -3.252850
                                CHANNELS 3 Zrotation Xrotation Yrotation
                                JOINT RightFinger41
                                {
                                    OFFSET  -3.717550   0.000000   0.000000
                                    CHANNELS 3 Zrotation Xrotation Yrotation
                                    JOINT RightFinger42
                                    {
                                        OFFSET  -1.858760   0.000000   0.000000
                                        CHANNELS 3 Zrotation Xrotation Yrotation
                                        End Site
                                        {
                                            OFFSET  -1.818440   0.000000   0.000000
                                        }
                                    }
                                }
                            }
                        }
                    }
                }
            }
        }
    }
    JOINT LeftHip
    {
        OFFSET   9.783030   0.000000   0.000000
        CHANNELS 3 Zrotation Xrotation Yrotation
        JOINT LeftKnee
        {
            OFFSET   0.000063 -41.789100   0.000608
            CHANNELS 3 Zrotation Xrotation Yrotation
            JOINT LeftAnkle
            {
                OFFSET   0.000048 -41.133200  -0.000184
                CHANNELS 3 Zrotation Xrotation Yrotation
                JOINT LeftToe
                {
                    OFFSET   0.000000  -6.358960  14.674500
                    CHANNELS 3 Zrotation Xrotation Yrotation
                    End Site
                    {
                        OFFSET   0.000000   0.000000   3.913200
                    }
                }
            }
        }
    }
    JOINT RightHip
    {
        OFFSET  -9.783030   0.000000   0.000000
        CHANNELS 3 Zrotation Xrotation Yrotation
        JOINT RightKnee
        {
            OFFSET   0.000071 -41.789100   0.001239
            CHANNELS 3 Zrotation Xrotation Yrotation
            JOINT RightAnkle
            {
                OFFSET   0.000037 -41.133200  -0.000166
                CHANNELS 3 Zrotation Xrotation Yrotation
                JOINT RightToe
                {
                    OFFSET   0.000000  -6.358960  14.674500
                    CHANNELS 3 Zrotation Xrotation Yrotation
                    End Site
                    {
                        OFFSET   0.000000   0.000000   3.913200
                    }
                }
            }
        }
    }
}
MOTION
Frames: 5
Frame Time:   0.016667
 -5.036100  89.251400   0.404477  -2.169250 -11.933200  -2.991050   1.639860   7.663280   0.028689   3.321040  15.324200  -0.168550   2.328010  -2.947140   0.119501   3.852920  -5.946340  10.796500  -5.577120  -0.315423   0.239952 -69.319400  22.289800  -6.154750  -4.102050  -8.137610 -17.014100  16.957000 -12.631100  11.837900  40.008900  36.919500 -63.056700 -35.048600   0.021190   0.014963 -12.524300   0.015088   0.004145 -29.953800   6.015950 -10.307500 -24.952000   0.007857   0.026158 -17.466400   0.006919   0.018350 -28.320500   0.039459  -0.073221 -34.388100   0.015266   0.042801 -22.902500   0.009953   0.029398 -28.793500   0.040075  -0.072893 -42.271100   0.011102   0.007305 -28.152600  -0.000465   0.005201 -40.458100  -1.209650   1.418040 -60.709600  -0.000083  -0.002306 -40.432600  -0.001206   0.011894   5.243380  -4.609240   3.982040  19.915500 -19.860600  19.301200 -31.228000 -33.149700  88.781700 -41.650800  31.917400  18.615200 -18.949400  48.258300  60.775500  82.802800   0.001278  -0.009190  48.486800  -0.001788   0.001196   4.404170   2.386220  28.390900   4.097330  -0.002910  -0.000613   2.868150   0.004766  -0.000745  10.655800   1.120500   5.929680  10.713800  -0.000525  -0.000526   7.135380   0.000000  -0.000702  73.791100  -4.949100  -1.436630  73.853100  -0.000246  -0.005146  55.389900   0.005632  -0.007559  88.984900 -10.001300  -0.174370 110.000000  -0.001185  -0.000536  79.999900   0.003498  -0.000462   5.103070  14.317200   4.018710   2.334050   0.795148   9.901430  -6.243460  -1.681430   1.405830   0.000000   0.000000   0.000000   5.177630  14.428700  -7.120210   1.460510   0.571055  -7.264910  -3.683380  -4.648890   1.914270  -0.000000   0.000000   0.000000
 -5.056930  89.251300   0.404881  -2.156480 -11.929300  -2.981420   1.627490   7.652690   0.044736   3.293630  15.303600  -0.133665   2.332570  -2.959830   0.119134   3.862260  -5.972810  10.631600  -5.599040  -0.299512   0.232898 -69.328700  22.277900  -6.134060  -4.096970  -8.073480 -17.125500  17.036700 -12.571600  11.796300  39.926000  36.745500 -62.825400 -35.019400   0.019847   0.013993 -12.509700   0.010293   0.008675 -29.953800   6.035440 -10.339600 -24.955300   0.008081   0.011307 -17.468700   0.006973   0.008366 -28.326300   0.054778  -0.101672 -34.441400   0.015684   0.025262 -22.938000   0.010253   0.018550 -28.793400   0.055605  -0.101227 -42.300500   0.008418   0.007443 -28.172200  -0.000564   0.005462 -40.501600  -1.222660   1.430980 -60.775300  -0.000035  -0.002311 -40.476300  -0.001191   0.012077   5.247600  -4.594120   3.970620  19.859300 -19.884600  18.977100 -31.317200 -33.212000  88.849600 -41.420600  31.782300  18.283900 -19.036500  48.577800  60.903400  82.764000   0.001182  -0.008346  48.460800  -0.001788   0.001180   4.210840   2.287380  28.463800   3.920060  -0.002743  -0.000669   2.744060   0.004987  -0.000797  10.435600   1.127770   6.077670  10.496400  -0.000526  -0.000545   6.990550   0.000000  -0.000732  73.855600  -4.942530  -1.428730  73.917200  -0.000242  -0.005252  55.438000   0.005677  -0.007833  88.984900 -10.001300  -0.174435 110.000000  -0.001153  -0.000511  79.999900   0.003424  -0.000499   5.096360  14.297700   4.001890   2.342610   0.821643   9.900670  -6.255440  -1.685340   1.409420   0.000000   0.000000   0.000000   5.180930  14.451200  -7.120140   1.459590   0.522505  -7.245770  -3.685320  -4.631280   1.894900   0.000000   0.000000   0.000000
 -5.073100  89.251300   0.405003  -2.141010 -11.920200  -2.962890   1.618210   7.638670   0.052852   3.273540  15.275800  -0.115828   2.333960  -2.982170   0.118811   3.863380  -6.017490  10.486600  -5.625160  -0.267484   0.231890 -69.351300  22.220200  -6.092780  -4.088180  -7.990740 -17.264400  17.179100 -12.563900  11.772900  39.867100  36.630300 -62.682500 -35.005300   0.018505   0.013023 -12.502600   0.005498   0.013890 -29.970600   6.048760 -10.355400 -24.970400   0.008217  -0.003545 -17.479300   0.007005  -0.001618 -28.337900   0.062485  -0.115977 -34.545800   0.015920   0.007724 -23.007500   0.010434   0.007702 -28.793300   0.063411  -0.115482 -42.369400   0.005733   0.007869 -28.218000  -0.000661   0.006251 -40.583900  -1.247280   1.455440 -60.899600   0.000000  -0.002314 -40.559100  -0.001188   0.012260   5.245100  -4.558550   3.959080  19.811900 -19.910500  18.683600 -31.468500 -33.259800  88.971700 -41.241000  31.651600  18.030100 -19.126100  48.897200  61.035300  82.737400   0.001088  -0.007695  48.443000  -0.001787   0.001166   3.999470   2.179030  28.543700   3.725910  -0.002574  -0.000729   2.608150   0.005208  -0.000849  10.250900   1.142260   6.299720  10.313200  -0.000526  -0.000559   6.868540   0.000000  -0.000767  73.887400  -4.939280  -1.424850  73.948800  -0.000237  -0.005358  55.461600   0.005719  -0.008105  88.984900 -10.001300  -0.174503 110.000000  -0.001118  -0.000487  79.999900   0.003346  -0.000534   5.086340  14.259100   3.993640   2.352150   0.869898   9.895030  -6.263600  -1.695230   1.411510  -0.000000   0.000000  -0.000000   5.181750  14.467900  -7.115120   1.460840   0.473941  -7.235810  -3.687720  -4.613700   1.862210  -0.000000   0.000000  -0.000000
 -5.083240  89.251200   0.405214  -2.124930 -11.906500  -2.937510   1.616110   7.620570   0.040583   3.270780  15.239300  -0.140178   2.318980  -3.008050   0.118506   3.838030  -6.070340  10.402400  -5.653650  -0.225483   0.249672 -69.409900  22.078800  -6.022490  -4.066090  -7.859240 -17.419800  17.305100 -12.745300  11.764600  39.866200  36.637500 -62.684000 -35.018000   0.042095   0.029560 -12.509000   0.023200   0.014730 -30.021600   6.034780 -10.314700 -25.008700   0.002657   0.012698 -17.506100   0.000360   0.008793 -28.354900   0.035660  -0.066270 -34.696500   0.006652   0.025138 -23.107900  -0.000022   0.016970 -28.793200   0.036188  -0.065985 -42.497600   0.011826   0.010113 -28.303400  -0.000756   0.011496 -40.694500  -1.280340   1.488200 -61.066600   0.000000  -0.002316 -40.670300  -0.004825   0.012514   5.226620  -4.500660   3.961890  19.780800 -19.916400  18.475200 -31.624300 -33.269700  89.087000 -41.319400  31.607200  17.968000 -19.120600  48.870700  61.025800  82.741200   0.001000  -0.007422  48.445600  -0.001787   0.001155   3.948580   2.153100  28.563100   3.679130  -0.002415  -0.000798   2.575400   0.005440  -0.000893  10.210600   1.163980   6.447980  10.274700  -0.000530  -0.000583   6.842940   0.000000  -0.000801  73.857400  -4.942350  -1.428550  73.919000  -0.000228  -0.005460  55.439300   0.005764  -0.008372  88.984900 -10.001300  -0.174580 110.000000  -0.001074  -0.000476  79.999900   0.003264  -0.000557   5.082600  14.213400   4.007410   2.356330   0.919085   9.867830  -6.268860  -1.710510   1.403600  -0.000000   0.000000  -0.000000   5.172420  14.444800  -7.089620   1.467430   0.502554  -7.251330  -3.682740  -4.636430   1.832610  -0.000000   0.000000  -0.000000
 -5.089550  89.251200   0.405380  -2.109720 -11.891400  -2.919900   1.616690   7.601960   0.018699   3.274730  15.201400  -0.183717   2.293070  -3.024280   0.118193   3.796470  -6.103540  10.371300  -5.678360  -0.184376   0.274305 -69.485800  21.924600  -5.944600  -4.041340  -7.723230 -17.558600  17.404000 -13.016500  11.769100  39.869600  36.672600 -62.710700 -35.044500   0.074527   0.052320 -12.522200   0.048988   0.014851 -30.074200   6.007840 -10.245400 -25.047300  -0.006683   0.041289 -17.533100  -0.010842   0.027117 -28.366100  -0.009921   0.018210 -34.796200  -0.009737   0.053389 -23.174300  -0.017605   0.031487 -28.793200  -0.010060   0.018137 -42.586400   0.021199   0.013825 -28.362500  -0.000849   0.018924 -40.768700  -1.302510   1.510180 -61.178700   0.000000  -0.002316 -40.745000  -0.010736   0.012671   5.200970  -4.445680   3.964730  19.743300 -19.905300  18.323800 -31.730900 -33.273300  89.202800 -41.486800  31.595200  17.958000 -19.102800  48.817400  61.000900  82.745000   0.000911  -0.007138  48.448200  -0.001786   0.001143   3.941320   2.149400  28.565900   3.672450  -0.002249  -0.000870   2.570720   0.005669  -0.000938  10.202400   1.178450   6.522180  10.269200  -0.000535  -0.000613   6.839280   0.000000  -0.000834  73.811400  -4.947050  -1.434210  73.873300  -0.000220  -0.005563  55.405000   0.005811  -0.008635  88.984900 -10.001300  -0.174657 110.000000  -0.001029  -0.000468  79.999900   0.003184  -0.000578   5.078400  14.166700   4.035420   2.355800   0.969340   9.828510  -6.271830  -1.729200   1.392320   0.000000   0.000000   0.000000   5.159370  14.414400  -7.054910   1.472060   0.531154  -7.275910  -3.675630  -4.659150   1.807810   0.000000   0.000000  -0.000000
